#!OML:ASF X:\für Bonn\!DataBase\2005_08_11_Bastian_Final\c3d\Bastian.ASF
:FULLY-SPECIFIED
:DEGREES
70
root 0.974032 19.3352 15.1608 546.023 -180.659 -183.413
lowerback 14.1801 -2.19809 2.00609
upperback 4.14011 -2.59867 0.277291
thorax -3.64647 -1.28806 -0.39832
lowerneck -7.44955 -2.84079 -0.0418271
upperneck -7.22195 -3.47703 9.27424
head -0.829161 -1.80131 2.91402
rclavicle 5.96354e-015 3.97569e-016
rhumerus -42.3951 -0.692633 -84.7537
rradius 16.7866
rwrist 11.9717
rhand -19.1813 14.2779
rfingers 7.12502
rthumb 7.13015 -15.582
lclavicle 5.96354e-015 3.97569e-016
lhumerus -33.0794 20.5536 73.743
lradius 38.0984
lwrist -185.37
lhand -20.671 5.84805
lfingers 7.12502
lthumb 5.69198 35.7516
rfemur -36.5543 -10.1325 25.118
rtibia 44.6245
rfoot 9.34874 6.14409
rtoes -26.2405
lfemur -26.8988 5.07702 -16.3795
ltibia 30.1314
lfoot 16.8081 -7.4589
ltoes -33.3758
71
root 0.965519 19.0064 15.3939 546.101 -180.811 -183.592
lowerback 14.2867 -2.27435 2.3137
upperback 3.9931 -2.64554 0.382382
thorax -3.86793 -1.31417 -0.445544
lowerneck -7.75987 -2.83785 -0.0337158
upperneck -7.36085 -3.47485 9.17016
head -0.823503 -1.79705 2.87453
rclavicle 7.55382e-015 -1.51076e-014
rhumerus -43.896 -0.576824 -84.6191
rradius 16.6778
rwrist 11.4326
rhand -19.1543 14.3858
rfingers 7.12502
rthumb 7.15623 -15.4732
lclavicle 7.55382e-015 -1.51076e-014
lhumerus -33.8401 22.0195 72.3651
lradius 36.3463
lwrist -187.052
lhand -20.9459 5.12636
lfingers 7.12502
lthumb 5.42654 35.0369
rfemur -36.6394 -9.81374 25.037
rtibia 44.8948
rfoot 8.47922 6.33908
rtoes -25.4855
lfemur -27.3452 5.32844 -16.2715
ltibia 31.1198
lfoot 15.1251 -8.19272
ltoes -31.782
72
root 0.956638 18.6648 15.6252 546.149 -180.971 -183.714
lowerback 14.3531 -2.35039 2.5948
upperback 3.91488 -2.69889 0.443092
thorax -3.99698 -1.34292 -0.525961
lowerneck -8.10019 -2.8371 0.0888729
upperneck -7.75553 -3.46785 9.0161
head -0.898467 -1.80093 2.80151
rclavicle -1.70955e-014 4.37326e-015
rhumerus -45.2324 -0.592817 -84.4752
rradius 16.6063
rwrist 10.9864
rhand -19.1798 14.6644
rfingers 7.12502
rthumb 7.13155 -15.1955
lclavicle -1.70955e-014 4.37326e-015
lhumerus -34.5883 23.5959 70.85
lradius 34.6462
lwrist -188.872
lhand -21.2298 4.85318
lfingers 7.12502
lthumb 5.15245 34.7705
rfemur -36.7478 -9.52526 24.9269
rtibia 45.6281
rfoot 7.20412 6.61681
rtoes -24.6158
lfemur -27.8185 5.57584 -16.2065
ltibia 32.6566
lfoot 12.6295 -9.10514
ltoes -28.8664
73
root 0.947736 18.3088 15.8546 546.098 -181.118 -183.845
lowerback 14.4177 -2.43921 2.87425
upperback 3.93639 -2.76958 0.518556
thorax -4.02012 -1.37893 -0.589226
lowerneck -8.44247 -2.82652 0.147176
upperneck -8.41911 -3.42456 8.89
head -1.05997 -1.79403 2.75584
rclavicle -2.00773e-014 3.97569e-016
rhumerus -46.3343 -0.59867 -84.3128
rradius 16.5261
rwrist 10.5031
rhand -19.1559 15.0703
rfingers 7.12502
rthumb 7.1547 -14.7887
lclavicle -2.00773e-014 3.97569e-016
lhumerus -35.3686 24.9847 69.3705
lradius 33.1285
lwrist -190.573
lhand -21.5421 4.56173
lfingers 7.12502
lthumb 4.8509 34.4862
rfemur -36.7993 -9.37363 24.9301
rtibia 46.73
rfoot 5.292 6.743
rtoes -23.0472
lfemur -28.3602 5.77247 -16.1043
ltibia 34.8302
lfoot 9.43612 -10.0819
ltoes -24.8458
74
root 0.938504 17.9461 16.0822 546.128 -181.261 -183.599
lowerback 14.304 -2.50664 2.74796
upperback 4.01374 -2.88146 0.523895
thorax -3.87474 -1.43173 -0.499479
lowerneck -8.86072 -2.81155 0.187553
upperneck -9.3104 -3.36258 8.75838
head -1.2841 -1.78281 2.7162
rclavicle -3.18055e-015 4.37326e-015
rhumerus -47.149 -0.697583 -84.0351
rradius 16.3815
rwrist 10.2569
rhand -19.169 15.5252
rfingers 7.12502
rthumb 7.14197 -14.3343
lclavicle -3.18055e-015 4.37326e-015
lhumerus -36.0992 26.5989 67.8396
lradius 31.6846
lwrist -192.461
lhand -22.0426 4.17235
lfingers 7.12502
lthumb 4.3676 34.1073
rfemur -37.0017 -9.49102 24.6643
rtibia 48.1464
rfoot 2.82645 6.71358
rtoes -20.192
lfemur -29.1083 5.79304 -16.3875
ltibia 37.6154
lfoot 5.46137 -10.9445
ltoes -19.7228
